<?xml version="1.0" encoding="utf-8"?>
<svg xmlns="http://www.w3.org/2000/svg" viewBox="0 0 512 512">
<rect width="512" height="512" rx="64" fill="#7A2E2E"/>
<g transform="translate(30 28) scale(1.0)">
<path fill="#FFF" d="M106.6,97.1c-9.2,9-19,18.4-28.9,28.1c11.3,10.9,22.3,21.4,32.8,31.6c9.6-9.5,18.9-18.8,28.9-28.8
	C128.5,117.8,117.6,107.6,106.6,97.1z M89.7,125.9c5.9-6.3,11.5-12.3,17-18.2c7.4,7.3,14.7,14.6,21.9,21.9
	c-5.5,5.4-11.3,11.1-17.3,17.1C103.7,139.4,96.3,132.2,89.7,125.9z M379.9,275.8c21.3,5.5,42.1,10.9,63.3,16.4
	c-1.3-16.1-2.5-31.6-3.8-47.9c-14.3-0.6-129.2-1-130.6-2.7c-0.6-0.7-0.8-1.5-0.8-1.7c-0.9-3.9-7.7-17.9-14.4-27.3
	c-2.8-4-5.4-7-8.3-10.3c-3.7-4.2-7-7.6-9.6-10.1c5.1-6.9,9.1-12.5,11.5-15.9c15.1-21.4,31.6-41.8,46-63.6c0.1-0.1,0.3-0.8,1.2-1.4
	c1.2-0.8,2.8-2.3,3.8-2c1.1,0.4,2.2,2.3,2.3,3.7c0.4,2.8,0.4,5.6,0,8.3c-1.5,8.8-6,16.3-10,24c-1.9,3.6-3.5,7.5-4.2,11.4
	c-0.9,4.6,2,6.8,6.5,5.7c10.3-2.5,18.9-8,25.6-16.2c15.1-18.3,15.3-45.2-4.2-61.4c-0.4-0.4-0.7-0.9-1.2-1.5
	c2.5-3.5,4.9-6.9,7.6-10.6c-6.8-4.9-13.3-9.6-20-14.5C312.1,97.3,284,135.9,256,174.5c-2-1.3-3.8-2.2-5.2-3.5c-0.9-0.9-2-2.3-2-3.4
	c-0.1-7.8-0.1-15.5,0.1-23.2c0.1-1.2,1.3-2.8,2.4-3.3c6.5-2.8,10.3-7.8,12.1-14.5c2.3-8.8-1.3-13.6-10.2-14.2
	c-0.4,0-0.9-0.1-1.5-0.3c-0.1-1.5-0.4-3-0.3-4.4c0.7-9.9,1-19.8,2-29.6c1.3-12.9,3.6-25.6,10.7-36.9c0.6-0.9,1-2,1.4-3
	c2.3-6.8-0.6-11.9-7.6-13.1c-3-0.5-6-0.2-9-0.7c-2.7-0.4-5.4-1.1-7.9-2.3c-3.3-1.6-6.3-3.8-9.5-5.7c-0.4-0.3-1.6-1.2-3.4-1.2
	c-2,0-3.3,1-3.7,1.3c-8.9,4.8-17.3,10.5-27.7,11.7c-3,0.4-4.5,2.7-4.9,5.6c-0.4,3.3,0.5,6.2,2.3,9.2c2.3,3.8,4.7,7.8,5.6,12
	c2.2,10.1,3.7,20.4,5.1,30.7c1,7.6,1.5,15.2,2.2,22.7c0.2,2.3-0.2,3.7-3.2,4.5c-2.5,0.7-5.4,3-6.8,5.3c-5.7,9.7-2.3,19.2,8.4,23.7
	c0,7.6,0.1,15.2-0.1,22.8c-0.1,1.4-0.9,2.8-1.5,4.1c-1.6-0.6-3.5-0.8-4.6-1.8c-4.1-3.8-8-7.8-11.9-11.7c-28-28-56.1-55.9-84-83.9
	c-2.5-2.5-4.7-5.1-6.4-6.9c-5.7,5.2-11.1,10-16.8,15.2c4.4,4.4,8.4,8.4,12.2,12.2c-4.9,4.9-10,10-15.3,15.3
	c-4.1-4.1-8.4-8.6-12.1-12.3c-7,6.8-14,13.6-21.4,20.8c0.7,0.7,1.6,1.2,2.3,1.8c23.6,23.5,47.1,47.1,71,70.2
	c7,6.8,12.1,13.6,12.6,23.7c0.2,6,1.7,11.8,2.7,18.1c-23,0-45.4,0-66.7,0c-1.8-3.6-3-6.8-4.9-9.4c-11.3-15.8-17.4-33.1-14.8-52.8
	c0.1-1.2,0-2.3,0-3.7c-6.4-0.7-12.6-1.4-19.2-2.1C20,211.7,13.9,261.8,7.7,312.2c17.6,1.2,34.7,2.4,51.9,3.6
	c2.4,0.2,2.4-1.2,2.5-2.9c1-12.4,2-24.8,3.1-37.3c0.5-5.4,1.1-10.7,1.6-16.4c23.5,0,46.6,0,70,0c0.1,1.9,0.2,3.5,0.4,5.4
	c-1.2,0.1-2.1,0.2-3.1,0.3c-16.8,0.9-34.6,14.1-40.4,30c-4.7,13,0.4,22.5,13.8,25.8c8.2,2,16.6,1.5,24.8,0.3
	c4.3-0.6,8.6-1.3,13.9-2.2C126,345,106.6,370.4,87,395.9c7.1,4.2,14,8.3,21,12.4c0.8-0.9,1.5-1.7,2-2.5
	c22.7-29.9,45.3-59.8,68.1-89.6c0.7-1,1.6-2.5,2.7-2.8c5.6-1.4,11.3-2.4,16.8-3.6c0.3,0.8,0.5,1,0.4,1.2c-1.6,7.6-3.4,15-4.8,22.7
	c-0.5,2.6-1.5,3.9-4.1,4.6c-2.4,0.7-4.7,1.9-6.8,3.3c-8.6,6-8.9,15-0.9,21.9c1.4,1.2,3.1,2,2.1,4.4c-5.4,13.8-11.4,27.2-22.8,37.4
	c-3.2,2.9-6.3,6.1-8.8,9.6c-4.1,5.8-2.6,10.2,3.9,12.9c0.8,0.3,1.6,0.5,2.4,0.8c34.1,11.3,68.9,14,104.1,6.9
	c9.9-2,19.7-4.9,29.1-8.5c7.2-2.7,8.1-8.8,2.8-14.4c-3.4-3.6-7.2-7-11.4-9.4c-12.1-7-17.4-18.2-20.4-31.2c-0.9-3.8-0.2-6.4,2.9-9.2
	c9.3-8.2,7.6-17.4-3.7-22.7c-0.9-0.4-2.1-1.2-2.3-2c-0.7-3.6-1-7.3-1.5-11c0.3-0.1,0.6-0.3,0.9-0.4c28.3,29.4,56.4,58.9,84.2,88
	c6.5-6.2,12.7-12.3,19.1-18.4c-7-7.4-13.9-14.8-20-21.3c5.3-6,10.2-11.5,15.3-17.1c7.3,7.6,14.2,14.7,20.8,21.7
	c5.8-6.1,11.5-11.9,17.2-17.9c-11.1-11.9-22.7-24.3-34.3-36.7C382.6,316.8,390.6,298.2,379.9,275.8z M32.8,170.5
	c3.4-0.8,3.1,1,3,2.8C35,187,38.3,199.7,45,211.6c2.1,3.8,4.5,7.4,6.2,11.4c1.4,3.3,2.8,6.9,2.7,10.3c-0.4,16.4-1.3,32.8-2.1,49.2
	c0,0.2-0.2,0.4-0.4,0.9c-10-0.7-20-1.5-30.6-2.3C24.9,244.2,28.9,207.4,32.8,170.5z M19.3,304.6c0.4-4.7,0.8-8.8,1.2-13.3
	c9.4,0.7,18.4,1.2,27.4,1.8c0.1,0.1,0.1,0.4,0.1,0.5c-3.3,1.6-11.7,2.6-12.7,4.2c-0.4,0.6-0.5,1.1-0.5,1.5c0,0.3,0,0.8,0.2,1.3
	c0.7,1.5,2.9,1.6,5.6,1.9c0,0,15.7,2.4,16.8,3.5C44.8,307,32.3,305.1,19.3,304.6z M430.9,253.2c0.8,8,1.6,15.8,2.4,24.3
	c-6.9-1.2-13.4-2.4-19.8-3.6c-12.6-2.3-25.1-4.6-37.7-7c-1.2-0.2-2.4-0.5-3.3-1.2c-6-4.8-11.9-9.7-18.1-14.7
	C379.8,251.7,405.1,252.5,430.9,253.2z M313,260c5.4,1.8,10.6,3.5,15.7,5.4c7.4,2.8,14.2,6.6,19.5,12.6c3.3,3.7,6.4,7.8,4.6,13
	c-1.9,5.4-6.9,6.1-11.8,6.6c-8.3,0.8-16.3-1.2-24.2-3.3c-4.7-1.3-9.3-3.1-14.7-4.9C312.2,281.7,313.1,271.3,313,260z M342.3,69.9
	c3,2.1,5.7,4,8.5,6c-2.8,4.4-5.6,8.6-8.5,13.1c8.4,4.2,14.8,10,17.6,19c2.2,7,1.9,14.1-0.3,21.1c-4.1,13.1-16.8,25.5-27.4,25.9
	c1.5-2.5,2.6-4.6,4-6.6c7.1-10.3,11.9-21.4,11.3-34.1c-0.1-3.2-0.9-6.5-2.1-9.4c-2.3-5.4-7-6.3-11.5-2.5c-1.7,1.4-3.1,3.1-4.4,4.8
	c-19.1,25.5-38.1,50.9-57.2,76.4c-0.7,0.9-1.5,1.9-2.3,3c-3.1-2.5-5.9-4.9-9-7.5C288,142.7,315,106.5,342.3,69.9z M240.6,28.6
	c-2.6,3.1-19.4,3.5-23.5,0.4C220.5,25.6,236.9,25.4,240.6,28.6z M199.3,37.1c0-0.4,0.1-0.8,0.2-1c0.2-0.5,0.7-1,1.4-1.4
	c1.9-0.9,4.6,0.9,5.2,1.3c4,2.6,10.6,3.4,18,4.4c10.9,1.4,22.2-2.1,25.8-3.4c2.1-0.8,4.3-1.6,6.5-2.1c0.9-0.2,1.9-0.1,1.9-0.1
	c0.5,0,1,0,1.3,0.1c0.2,0.1,0.8,0.6,1,1.5c0.2,1-0.3,2-1.1,2.6c-2,0.9-5.1,2.3-9.2,3.6c0,0-19.5,6.2-40.9,0.5
	C199.8,40.4,199.3,37.7,199.3,37.1z M228.8,63.5c-11.8,0-21.4-3.5-21.4-7.8c0-4.3,9.3,1.7,21.4,1.7c12,0,21.4-6.1,21.4-1.7
	C250.2,60,240.6,63.5,228.8,63.5z M246.9,73.8c-0.4,5.4-0.8,10.2-1.2,14.9c-0.7,7.1-1.2,14.2-2.1,21.3c-0.1,1.2-1.1,2.8-2.1,3.3
	c-8.4,3.7-17,2.5-25.5,0.1c-0.8-0.2-1.7-2-1.7-3.1c-0.4-4.6-0.4-9.4-0.8-14.1c-0.6-7-1.4-14.2-2.1-21.9
	C223.1,77.2,234.7,77.8,246.9,73.8z M204.8,127.1c-0.1-0.9,0-1.8,0.3-2.8c0.3-0.9,0.7-1.5,1.3-1.9c1.8-1.4,4.6-0.8,5.4-0.7
	c5.5,1.2,13.4,1.6,16.2,1.6c3.7,0,12.7-0.6,19.1-2.2c0.8-0.2,2.6-0.7,3.9,0.3c1.7,1.3,1.8,4.7,0.6,7c-1.1,2.1-3,3.1-4.9,4.1
	c-2.5,1.2-4.6,1.6-5.3,1.7c-3.1,0.5-19.9,3.4-29.2-0.2c-2-0.8-3.5-1.9-4-2.3C206.8,130.6,205.1,129.3,204.8,127.1z M241.4,161.5
	c0,0.8-1.2,2-2.2,2.3c-8.4,3.1-16.7,1.1-24.9-1.2c-0.6-0.1-1.2-1.5-1.2-2.3c-0.1-5.9-0.1-11.8-0.1-17.5c9.7,0,18.8,0,28.4-0.1
	C241.4,149,241.6,155.2,241.4,161.5z M200.5,179.9c17.9-6.9,34.9-5,50.6,6.1c23.5,16.6,39.3,39,48.7,66c2.2,6.2,2.9,12.6,1.2,19
	c-1.2,4.4-3.4,8.1-8.3,9.2c-5.7,1.3-10.5-0.9-14.8-4.1c-0.6-0.4-0.7-1.7-0.8-2.6c-3.6-27.7-13.4-53-31.1-75
	c-0.5-0.6-0.9-1.2-1.5-1.7c-3.7-4-3.7-4-8.1,0.1c16.8,22.2,27.5,47.1,33.6,75.2c-14.5-10.2-29.1-17.9-46.9-20.2
	c1-19,2-37.5,2.9-56.4c-4.8-1.7-6.2-1-7.4,4.3c-3.1,13.4-4.1,26.9-3.9,40.7c0,3.2,0,6.5,0,10.2c-14.1,0.9-27.7,3.3-41.2,9.4
	c2.5-25.8,14.2-46.3,30.6-65.1c-0.6-0.9-1.3-2.4-2.3-4.1c-9.5,4.6-14.1,13.4-19.6,21.9c-3.4-3.7-6.7-7.2-10.2-11
	C179.8,191.8,189,184.3,200.5,179.9z M67,250.7c0-4,0-7.8,0-11.9c22.2,0,43.9,0,66.2,0c0.7,3.8,1.3,7.7,2,11.9
	C112.1,250.7,89.6,250.7,67,250.7z M132.6,191.6c-25.2-25.2-50.5-50.5-76-76c2.1-1.9,4.7-4.2,7.6-6.8c3.5,3.3,7.4,7,11.5,10.7
	c9-9.3,17.9-18.5,26.6-27.6c-3.1-3.3-6.5-7.1-10.3-11.3c1.2-1.3,2.8-3.1,4.5-4.8c32.5,32.5,64.6,64.7,97,97.2
	c-4.4,1.7-7.6,6.4-13.4,3.3c-0.5-0.3-2,0.8-2.8,1.5c-4.8,4.7-9.5,9.5-14.2,14.3c-2.3-1.6-4.4-3.1-7-4.9c7.3-6.6,14.4-13.1,21.1-19.3
	c-11.9-12.2-22.8-23.5-34-34.9c-9.4,9.8-18.5,19.3-27.5,28.6c8.4,8.8,16.5,17.4,24.5,25.7C137.9,188.8,135.1,190.2,132.6,191.6z
 M147.7,197.5c2.7,1.7,16.2,16.5,22.9,24.3c0.9,1,1.2,2.9,1,4.2c-2.3,13.1-4.7,26.1-7.1,39.1c-1,5.1-7.4,9.4-12.6,8.6
	c-2.6-0.4-2.8-2.3-3.1-4.1c-1.5-9.9-3.1-19.8-4.6-29.7c-1.5-10-3.1-20-4.6-30.1c-0.1-1.3-0.4-2.6-0.5-3.9c-0.2-1.7,0-4,1.1-5.7
	C142.3,197.1,147.2,197.4,147.7,197.5z M125.4,161c5.9-5.8,12-11.9,17.8-17.7c8.2,8,16.5,16.2,25.6,25.1c-6.5,5.7-13,11.4-19.3,16.9
	C142,177.7,133.7,169.3,125.4,161z M104.5,399.9c-2.4-1.5-4.6-3-7.2-4.6c5.4-7.2,10.6-14.2,15.7-21.1c13.5-18,27-36,40.4-54
	c1.5-2,3.1-3.1,5.6-3.3c3.6-0.3,7-1,11.6-1.7C148.2,343.8,126.4,371.7,104.5,399.9z M262.6,395c2.8,7.1,7.9,12.4,14.5,16.2
	c2.5,1.4,4.9,3,8.3,5.1c-2.5,1.3-4.1,2.3-5.7,3c-11.3,4.4-23,6.5-34.9,7.8c-23.2,2.5-46.1,1.2-68.7-4.9c-4.7-1.2-9.2-3.2-14.5-5.1
	c1.2-1.4,19.9-21.9,24.8-34.5c1.3-3.2,2.7-6.4,3.8-9.7c0.2-0.5,0.7-2,2-2.6c0.5-0.2,1-0.2,1.4-0.2c0.2,0,0.6,0.1,0.9,0.3
	c1.2,0.8,1.1,2.9,1,3.9c-0.4,6.3-1.1,12.1-1.3,17.6c-0.2,5.2,2,8.4,5.3,8.6c3.5,0.1,5.4-2.5,6.1-8c0.4-3.7,0.8-7.5,1.6-11.1
	c0.6-2.4,1.6-4.8,3-6.9c1.7-2.6,4-2.4,5.2,0.5c1,2.5,1.5,5.4,1.7,8.1c0.3,4.6,0,9.2,0.1,13.8c0.1,3.6,2.6,5.7,6.2,5.7
	c3-0.1,4.7-1.4,4.9-4.6c0.2-5.7,0.3-11.5,0.7-17.4c0.2-2.1,0.9-4.3,2-6.1c1.6-2.8,4.6-2.9,6.1-0.1c1.5,2.8,2.3,6.1,2.8,9.2
	c0.8,4.2,1,8.6,1.6,12.9c0.4,3.1,2.3,4.8,5.2,5.3c3.7,0.7,6-1.2,5.9-4.9c-0.2-5.4-0.9-10.8-1.3-16.3c-0.1-2.1-0.4-4.3-0.2-6.5
	c0.1-0.9,1-2.2,1.7-2.4c0.8-0.2,2.1,0.6,2.7,1.3c0.8,1,1.2,2.4,1.5,3.6C258.8,382.8,260.2,389.1,262.6,395z M258.6,352.9
	c0.9,3-2.2,4.9-4.6,5.4c-8.3,1.5-16.6,2.7-24.9,3.8c-1.7,0.2-3.4,0-5.1,0c-11.2,0.4-22.2-1.3-32.9-3.9c-3.3-0.9-4.9-2.8-4.2-5.2
	c0.7-2.5,2.8-3.1,6.2-1.8c8.6,3.3,17.7,3.3,26.7,3.6c10.7,0.3,21.5,0.4,31.9-3.4C253.9,350.5,257.6,349.5,258.6,352.9z M231.6,325.8
	c-0.1-1.8-0.2-3.1-1.2-4.2c-1.1-1.2-2.7-1.5-3.6-1.6c-0.9-0.1-2.2,0-3.3,0.8c-1.8,1.3-2,3.9-2.1,11.1c-0.1,8.4-0.2,11.9-1.8,12.5
	c-0.4,0.2-1,0.1-1.4-0.1c-1.3-0.6-1.3-2.7-1.5-4.9c-1-10.4-1.1-12-1.1-12c0-1.7-0.4-3.4-1.7-4.1c-1-0.5-2.1-0.2-2.4-0.1
	c-2.5,0.8-3.4,4.3-5.9,14.3c-0.4,1.6-1,3.9-1.7,6.8c-0.6,0.7-1.6,0.9-2.3,0.4c-0.6-0.4-0.8-1.2-0.6-1.9c0.6-5.1,1.2-10.1,1.9-15.2
	c0.8-6,1.6-12,2.4-17.9c4,0,8.2-0.4,12.3,0.1c8.5,1.1,16.9,2.7,25.4,3.9c2,0.4,2.8,1.3,3,3.3c0.2,2.1,1.4,10.8,3.1,23.3
	c0.1,0.5,0.4,1.9-0.5,2.8c-0.2,0.2-0.4,0.3-0.5,0.4c-0.2,0-0.5,0-0.8-0.1c-1.1-0.5-1.4-2.1-1.6-2.8c-1.1-4.5-1.6-10.8-1.6-10.8
	c-0.2-2.9-0.4-4.9-1.8-5.7c-0.5-0.3-1.1-0.4-1.4-0.4c-0.6,0-1.4,0.1-2.1,0.6c-1.1,0.9-1.2,2.3-1.3,3.1c-0.5,6.5-1.7,15.3-2.8,15.9
	c-0.6,0.3-1.1,0.2-1.1,0.2c-0.8-0.1-1.2-0.8-1.4-1.1c-1-1.5-0.6-3.6-0.6-4.2C231.6,335.2,232,332.1,231.6,325.8z M230.5,298.2
	c-20.1-4.4-39.9-1.7-59.4,3.9c-13.7,4-27.5,7.8-41.8,8.1c-2.6,0.1-5.4-0.1-7.9-0.7c-5.7-1.3-8.6-6-7.3-11.8c2-9,7.1-16,14.7-21.2
	c1-0.7,2.6-0.7,3.9-0.9c0.1,1.4,0.7,2.8,0.4,4.1c-0.8,3.3-2.4,6.6-2.7,10c-0.5,6.3,2.4,8,8,5c14-7.4,27.9-15,42-22.2
	c9.3-4.7,19-8.3,29.6-8.8c8.8-0.4,17.3,1.3,25,5.1c12,5.9,24,12.1,35.1,19.5c16.8,11.2,35.6,16,55.3,17.6c8.5,0.7,17.1-0.2,25.6-0.5
	c1.2-0.1,2.3-0.5,3.5-0.9c10.6-3.3,14-11.2,9.3-21.3c-5.1-10.8-14.1-16.9-16.9-18.5c-4.3-2.5-9-4.2-12.6-5.5
	c-8.1-2.9-12.1-4.3-12.1-4.3c-0.9-0.2-3.6-0.7-6.1-2.6c-0.8-0.6-1.4-1.3-1.8-1.7c0.2-0.6,0.5-1.5,1.3-2c1.1-0.7,2.5-0.4,3.1-0.2
	c21.7,5.9,27.9,9.2,27.9,9.2c10.2,5.5,15.4,8.3,20.1,13.3c6.3,6.7,7.8,12.1,8.3,14.3c0.3,1.3,0.8,4.2,0.5,8
	c-1.1,12.9-9,20.6-23.5,23c-10.4,1.8-20.7,1-31.1,0c-20.1-2-40.2-4.2-59.7-9.5C251,304,240.9,300.5,230.5,298.2z M342.2,341.4
	c-5.6,5.3-10.9,10.3-16.1,15.3c-6.7-7-13.2-13.9-20-21c3-2.8,6.4-7.3,10.9-9.6c2.8-1.4,8.1-0.7,10.8,1.2
	C333,331.3,337.2,336.5,342.2,341.4z M383.8,362.8c0.1,0.1,0.1,0.4,0.4,1c-1.7,1.4-3.6,2.8-5.5,4.4c-6.7-6.8-13.3-13.5-20-20.3
	c-9.6,9-18.6,17.5-27.9,26.3c6.3,6.9,12.6,13.6,19,20.5c-2.1,2-4.1,3.7-6.2,5.6c-27.7-27.4-55.2-54.5-82.7-81.6
	c5.9-0.1,11.8-1.4,16,4.1c3.4,4.4,7.2,8.5,10.9,12.9c5.1-4.4,8.9-7.5,12.5-10.8c2.2-2,4.2-2.6,7.1-0.7c-4.6,4.3-9.1,8.6-13.4,12.6
	c10.3,10.6,20.6,21.1,31.2,31.9c9.4-8.7,18.8-17.4,28.9-26.6c-4.9-4.6-9.6-8.9-14.1-13.1c0.1-0.3,0.2-0.6,0.4-0.9
	c3.3,0,6.7-0.1,10,0.1c0.9,0.1,1.8,0.8,2.4,1.5C363.1,340.5,373.4,351.6,383.8,362.8z"/>
</g>
</svg>
